<?xml version="1.0" encoding="UTF-8"?>
<svg width="250px" height="250px" viewBox="0 0 250 250" version="1.1" xmlns="http://www.w3.org/2000/svg" xmlns:xlink="http://www.w3.org/1999/xlink">
    <!-- Generator: Sketch 51.3 (57544) - http://www.bohemiancoding.com/sketch -->
    <title>icon-health</title>
    <desc>Created with Sketch.</desc>
    <defs></defs>
    <g id="icon-health" stroke="none" stroke-width="1" fill="none" fill-rule="evenodd">
        <path d="M228.384357,39.6185973 C215.740078,26.9713604 198.913574,20 181.022288,20 C163.131003,20 146.313372,26.9684027 133.663178,39.6185973 L125.008871,48.2788194 L116.348649,39.6185973 C103.695497,26.9713604 86.8749085,20 68.9806655,20 C51.092338,20 34.2747073,26.9684027 21.6185973,39.6185973 C8.97136045,52.2747073 2,69.0952957 2,86.986581 C2,104.880824 8.96840272,121.698455 21.6185973,134.348649 L125.005914,237.733008 L228.378441,134.348649 C241.034551,121.701412 247.999996,104.880824 247.999996,86.986581 C248.005912,69.0952957 241.040467,52.2747073 228.384357,39.6185973 Z M220.309764,126.271099 L125.011829,221.57495 L45.2744908,141.837612 L62.7162016,141.837612 C66.5908228,141.837612 70.8381175,139.71988 73.3581002,136.661591 L80.3531224,160.033543 C81.8822668,165.168155 85.7184376,165.801109 86.8571622,165.875052 C88.0047599,165.94308 91.8852966,165.798151 94.0503521,160.894241 L109.395035,126.149832 L127.496319,186.478572 C129.034337,191.598396 132.858676,192.240222 133.994443,192.314166 C134.097964,192.320081 134.231061,192.328954 134.373032,192.328954 C135.81936,192.328954 139.217788,191.81431 141.214253,187.383636 L161.415522,142.476481 C161.58707,142.236905 162.119461,141.893809 162.415233,141.834654 L186.878586,141.834654 C190.031522,141.834654 192.592913,139.276221 192.592913,136.120327 C192.592913,132.964433 190.03448,130.408958 186.878586,130.408958 L162.36791,130.408958 C157.706533,130.408958 152.929806,133.493866 151.022072,137.741161 L135.292885,172.692611 L117.147235,112.213027 C115.60626,107.08433 111.773047,106.451377 110.634322,106.377433 C109.489682,106.309406 105.606188,106.451377 103.441132,111.361202 L88.0994071,146.087864 L82.2224054,126.430816 C81.2374826,123.141825 78.8979212,120.944234 75.9579414,120.547899 C73.1155667,120.163395 70.3737545,121.547611 68.5517953,124.25393 L64.8901303,128.900518 L64.7037936,129.13122 L64.5381609,129.397416 C64.245346,129.80854 63.2012687,130.385296 62.7162016,130.417831 L33.8487948,130.417831 L29.7050205,126.274057 C19.2110082,115.780045 13.4286537,101.828451 13.4286537,86.9895387 C13.4286537,72.1506268 19.2110082,58.1990327 29.7050205,47.7079782 C40.1931173,37.2110082 54.1506268,31.4375269 68.9836233,31.4375269 C83.8284506,31.4375269 97.7741293,37.2110082 108.271099,47.7079782 L125.008871,64.4398348 L141.743686,47.7079782 C152.231782,37.2110082 166.183377,31.4375269 181.019331,31.4375269 C195.864158,31.4375269 209.812794,37.2110082 220.303849,47.7079782 C230.797861,58.1990327 236.577258,72.1506268 236.577258,86.9895387 C236.577258,101.828451 230.803777,115.777087 220.309764,126.271099 Z" id="Shape" stroke="#FFFFFF" stroke-width="3.5" fill="#FFFFFF" fill-rule="nonzero"></path>
    </g>
</svg>