<?xml version="1.0" encoding="UTF-8"?>
<svg width="250px" height="250px" viewBox="0 0 250 250" version="1.1" xmlns="http://www.w3.org/2000/svg" xmlns:xlink="http://www.w3.org/1999/xlink">
    <!-- Generator: Sketch 51.3 (57544) - http://www.bohemiancoding.com/sketch -->
    <title>icon-nutrition</title>
    <desc>Created with Sketch.</desc>
    <defs></defs>
    <g id="icon-nutrition" stroke="none" stroke-width="1" fill="none" fill-rule="evenodd">
        <g fill-rule="nonzero">
            <rect id="Rectangle" x="0" y="0" width="250" height="250"></rect>
            <path d="M227.108386,125.242854 C240.763825,117.633937 250,103.383435 250,87.0572615 C250,62.352255 230.464432,43 205.525348,43 C182.639375,43 163.687589,60.1863367 160.906866,82.3334161 L89.1044153,82.3334161 C86.323692,60.1863367 67.3719062,43 44.4831126,43 C19.5468493,43 0.0112808249,62.352255 0.0112808249,87.0572615 C0.0112808249,103.380615 9.24181576,117.625477 22.8916138,125.237213 C9.23617535,132.84613 0,147.096632 0,163.425626 C0,188.130632 19.5355684,207.482887 44.474652,207.482887 C67.3606254,207.482887 86.3124112,190.29655 89.0931345,168.149471 L160.898405,168.149471 C163.679128,190.29655 182.630914,207.482887 205.519708,207.482887 C230.455971,207.482887 249.991539,188.130632 249.991539,163.425626 C249.991539,147.099452 240.758184,132.85459 227.108386,125.242854 Z M205.519708,196.199242 C186.940189,196.199242 171.826704,181.085757 171.826704,162.506238 C171.826704,159.392731 169.299799,156.865826 166.186292,156.865826 L83.8052478,156.865826 C80.6917402,156.865826 78.1648354,159.392731 78.1648354,162.506238 C78.1648354,181.082937 63.0513503,196.199242 44.474652,196.199242 C25.861291,196.199242 11.2808249,181.802089 11.2808249,163.422805 C11.2808249,146.690522 24.4370868,132.871511 41.3498635,130.908648 C42.7120231,131.027097 44.0882837,131.111703 45.4842858,131.111703 C48.5977935,131.111703 51.1246982,128.584798 51.1246982,125.47129 C51.1246982,125.378223 51.1021366,125.290797 51.0964962,125.19773 C51.0993164,125.132866 51.1162376,125.070821 51.1162376,125.005956 C51.1162376,121.892449 48.5893329,119.365544 45.4758252,119.365544 C44.0854635,119.365544 42.7148433,119.44733 41.3555039,119.568599 C24.4455475,117.605735 11.2921057,103.786725 11.2921057,87.0572615 C11.2921057,68.6779776 25.8697516,54.2808249 44.4831126,54.2808249 C63.0626311,54.2808249 78.1761162,69.39431 78.1761162,87.9738285 C78.1761162,91.0873361 80.703021,93.6142409 83.8165287,93.6142409 L166.197572,93.6142409 C169.31108,93.6142409 171.837985,91.0873361 171.837985,87.9738285 C171.837985,69.3971302 186.95147,54.2808249 205.528168,54.2808249 C224.141529,54.2808249 238.721995,68.6779776 238.721995,87.0572615 C238.721995,103.789545 225.565733,117.608555 208.652957,119.571419 C207.290797,119.45297 205.914536,119.368364 204.518534,119.368364 C201.405027,119.368364 198.878122,121.895269 198.878122,125.008776 C198.878122,125.101843 198.900684,125.18927 198.906324,125.282336 C198.903504,125.347201 198.886583,125.409246 198.886583,125.474111 C198.886583,128.587618 201.413487,131.114523 204.526995,131.114523 C205.917357,131.114523 207.287977,131.032737 208.647316,130.911468 C225.557273,132.874332 238.710715,146.693342 238.710715,163.425626 C238.710715,181.802089 224.133069,196.199242 205.519708,196.199242 Z" stroke="#FFFFFF" stroke-width="2" fill="#FFFFFF"></path>
        </g>
    </g>
</svg>