<?xml version="1.0" encoding="UTF-8"?>
<svg width="250px" height="250px" viewBox="0 0 250 250" version="1.1" xmlns="http://www.w3.org/2000/svg" xmlns:xlink="http://www.w3.org/1999/xlink">
    <!-- Generator: Sketch 51.3 (57544) - http://www.bohemiancoding.com/sketch -->
    <title>icon-pestcontrol</title>
    <desc>Created with Sketch.</desc>
    <defs></defs>
    <g id="icon-pestcontrol" stroke="none" stroke-width="1" fill="none" fill-rule="evenodd">
        <path d="M124.976258,37.4277795 C133.706696,37.4277795 141.981066,38.8711016 149.3433,41.4828272 C154.164587,36.7404833 157.682823,31.1733838 159.637398,25.5375548 C161.722279,19.6955369 162.048042,13.9222486 160.158619,9.45482311 C158.920721,6.36199009 160.288924,2.78804972 163.155635,1.48218689 C166.087498,0.176324063 169.475429,1.61964614 170.713327,4.64374953 C173.775495,12.1352784 173.514885,21.0013997 170.452717,29.7300618 C168.367836,35.6408093 164.979905,41.4828272 160.484381,46.7750081 C161.266211,47.1873859 161.982889,47.6684932 162.699567,48.2183302 C173.189123,55.366211 179.704374,65.4694655 179.704374,76.8785828 C179.704374,83.7515451 177.293731,90.2121296 173.12397,95.779229 C178.075561,101.07141 181.984713,106.913428 185.046881,113.167824 L214.49582,97.42874 L220.555004,68.9059466 C221.271682,65.6756543 224.33385,63.6137657 227.396019,64.3697915 C230.52334,65.0570877 232.477915,68.3561096 231.761237,71.5864019 L225.11568,102.92711 C224.724765,104.71408 223.55202,106.157402 222.053512,106.982157 L189.346947,124.439482 C191.757591,132.480847 192.930336,140.865861 192.930336,149.388335 L192.930336,150.900386 L227.852086,153.512112 C229.676357,153.649571 231.174865,154.680516 232.152153,156.123838 L247.788757,177.49875 C249.743333,180.179206 249.287265,183.959335 246.746317,186.021223 C244.270521,188.014382 240.62198,187.533275 238.732557,184.921549 L224.464155,165.402337 L191.953048,162.9968 C191.040913,169.457384 189.477252,175.849239 187.327219,182.034905 C185.698406,186.777249 183.678678,191.382134 181.39834,195.78083 L210.130601,217.087013 C211.368499,217.980498 212.150329,219.286361 212.410939,220.660953 L217.036768,241.554758 C217.753446,244.85378 215.864023,248.084073 212.736702,248.840098 C209.674533,249.596124 206.547212,247.602965 205.830535,244.303943 L201.725926,225.678216 L175.078546,205.884084 C173.970953,207.396136 172.86336,208.839458 171.755767,210.214051 C159.963161,224.509812 143.870489,233.92577 124.976258,233.92577 C106.14718,233.92577 90.0545078,224.509812 78.2619018,210.214051 C77.0891564,208.839458 75.9815636,207.396136 74.9391233,205.884084 L48.2265904,225.678216 L44.1219816,244.303943 C43.4053039,247.602965 40.3431355,249.596124 37.2158146,248.840098 C34.1536462,248.084073 32.1990706,244.85378 32.9157483,241.554758 L37.5415772,220.660953 C37.8673398,219.286361 38.64917,217.980498 39.8219154,217.087013 L68.6193289,195.78083 C66.2738382,191.382134 64.2541101,186.777249 62.6252971,182.034905 C60.475264,175.849239 58.9116035,169.457384 57.9994683,162.9968 L25.5535136,165.402337 L11.2851119,184.921549 C9.3305363,187.533275 5.74714774,188.014382 3.20619948,186.021223 C0.730403745,183.959335 0.27433611,180.179206 2.16375917,177.49875 L17.8003638,156.123838 C18.7776516,154.680516 20.3413121,153.649571 22.1655826,153.512112 L57.087333,150.900386 L57.087333,149.388335 C57.087333,140.865861 58.1949258,132.480847 60.605569,124.439482 L27.8990043,106.982157 C26.4004964,106.157402 25.2929035,104.71408 24.9019884,102.92711 L18.2564315,71.5864019 C17.5397537,68.3561096 19.4943293,65.0570877 22.5564977,64.3697915 C25.6838187,63.6137657 28.7459871,65.6756543 29.3975123,68.9059466 L35.4566966,97.42874 L64.9707878,113.167824 C67.9678037,106.913428 71.9421074,101.07141 76.8936989,95.779229 C72.6587851,90.2121296 70.3132944,83.7515451 70.3132944,76.8785828 C70.3132944,65.4694655 76.7633938,55.366211 87.2529495,48.2183302 C87.9696272,47.6684932 88.7514574,47.1873859 89.5332876,46.7750081 C85.0377638,41.4828272 81.5846803,35.6408093 79.5649522,29.7300618 C76.5027838,21.0013997 76.2421737,12.1352784 79.3043421,4.64374953 C80.54224,1.61964614 83.930171,0.176324063 86.7968818,1.48218689 C89.7287452,2.78804972 91.0317956,6.36199009 89.7938977,9.45482311 C87.9696272,13.9222486 88.2953898,19.6955369 90.3151179,25.5375548 C92.2696935,31.1733838 95.853082,36.7404833 100.674368,41.4828272 C107.971451,38.8711016 116.245821,37.4277795 124.976258,37.4277795 Z M181.072577,156.673675 C181.072577,156.467486 181.072577,156.261297 181.072577,156.055108 C181.13773,155.78019 181.13773,155.574001 181.202882,155.299082 C181.333187,153.305923 181.39834,151.381494 181.39834,149.388335 C181.39834,132.687036 176.316443,116.260657 164.784448,104.095513 C164.06777,104.576621 163.416245,105.126458 162.699567,105.538835 C154.229739,111.312124 143.088659,115.229712 130.774832,116.123197 L130.774832,221.348249 C143.544726,219.698738 154.620654,212.482128 163.090482,202.241414 C168.823904,195.299722 173.449733,186.914709 176.577054,177.842398 C178.922544,171.038166 180.486205,163.890285 181.072577,156.673675 Z M68.749634,155.299082 C68.8147865,155.505271 68.879939,155.78019 68.879939,156.055108 C68.879939,156.261297 68.879939,156.536215 68.879939,156.742404 C69.5314642,163.959015 71.0951247,171.106895 73.4406154,177.842398 C76.5679363,186.914709 81.1286126,195.299722 86.8620343,202.241414 C95.3318619,212.482128 106.40779,219.698738 119.242836,221.348249 L119.242836,116.123197 C106.863858,115.229712 95.722777,111.312124 87.2529495,105.538835 C86.6014243,105.126458 85.8847466,104.576621 85.2332214,104.095513 C73.7012254,116.260657 68.5541764,132.687036 68.5541764,149.388335 C68.5541764,151.312764 68.6193289,153.305923 68.749634,155.299082 Z M156.444925,58.3215847 C148.496318,52.8919446 137.420389,49.524193 124.976258,49.524193 C112.597279,49.524193 101.456199,52.8919446 93.5075913,58.3215847 C86.2756617,63.2701176 81.8452904,69.8681613 81.8452904,76.8785828 C81.8452904,83.8890043 86.2756617,90.4870481 93.5075913,95.4355809 C101.456199,100.865221 112.597279,104.232973 124.976258,104.232973 C137.420389,104.232973 148.496318,100.865221 156.444925,95.4355809 C163.676855,90.4870481 168.172379,83.8890043 168.172379,76.8785828 C168.172379,69.8681613 163.676855,63.2701176 156.444925,58.3215847 Z" stroke="#FFFFFF" fill="#FFFFFF" fill-rule="nonzero"></path>
    </g>
</svg>