<?xml version="1.0" encoding="UTF-8"?>
<svg width="250px" height="250px" viewBox="0 0 250 250" version="1.1" xmlns="http://www.w3.org/2000/svg" xmlns:xlink="http://www.w3.org/1999/xlink">
    <!-- Generator: Sketch 51.3 (57544) - http://www.bohemiancoding.com/sketch -->
    <title>icon-exoticpets</title>
    <desc>Created with Sketch.</desc>
    <defs></defs>
    <g id="icon-exoticpets" stroke="none" stroke-width="1" fill="none" fill-rule="evenodd">
        <path d="M220.338983,188.841202 L219.279661,188.841202 C222.10452,184.191702 223.870056,178.826896 223.870056,173.104435 C223.870056,156.652361 210.451977,143.061516 194.20904,143.061516 L161.016949,143.061516 L161.016949,85.8369099 L235.169492,85.8369099 C239.053672,85.8369099 242.231638,82.6180258 242.231638,78.683834 C242.231638,74.7496423 239.053672,71.5307582 235.169492,71.5307582 L194.20904,71.5307582 L194.20904,41.130186 C194.20904,18.5979971 175.847458,0 153.601695,0 L130.29661,0 C108.757062,0 91.1016949,17.8826896 91.1016949,39.6995708 L91.1016949,143.061516 L56.1440678,143.061516 C39.9011299,143.061516 26.4830508,156.652361 26.4830508,173.104435 C26.4830508,178.826896 28.2485876,184.191702 31.0734463,188.841202 L29.6610169,188.841202 C13.4180791,188.841202 0,202.432046 0,218.88412 L0,219.957082 C0,236.409156 13.4180791,250 29.6610169,250 L220.338983,250 C236.581921,250 250,236.409156 250,219.957082 L250,218.88412 C250,202.432046 236.581921,188.841202 220.338983,188.841202 Z M105.225989,39.6995708 C105.225989,25.751073 116.525424,14.3061516 130.29661,14.3061516 L153.601695,14.3061516 C168.079096,14.3061516 180.084746,26.4663805 180.084746,41.130186 L180.084746,71.5307582 L158.898305,71.5307582 C152.189266,71.5307582 146.539548,77.2532189 146.539548,84.0486409 L146.539548,143.061516 L105.225989,143.061516 L105.225989,39.6995708 Z M56.1440678,157.367668 L193.855932,157.367668 C202.330508,157.367668 209.392655,164.520744 209.392655,173.104435 C209.392655,181.688126 202.330508,188.841202 193.855932,188.841202 L56.1440678,188.841202 C47.6694915,188.841202 40.6073446,181.688126 40.6073446,173.104435 C40.6073446,164.520744 47.6694915,157.367668 56.1440678,157.367668 Z M235.875706,220.314735 C235.875706,228.898426 228.813559,236.051502 220.338983,236.051502 L29.6610169,236.051502 C21.1864407,236.051502 14.1242938,228.898426 14.1242938,220.314735 L14.1242938,219.241774 C14.1242938,210.658083 21.1864407,203.505007 29.6610169,203.505007 L220.338983,203.505007 C228.813559,203.505007 235.875706,210.658083 235.875706,219.241774 L235.875706,220.314735 Z M157.838983,56.509299 C163.841808,56.509299 168.432203,51.8597997 168.432203,45.7796853 C168.432203,39.6995708 163.841808,35.0500715 157.838983,35.0500715 C151.836158,35.0500715 147.245763,39.6995708 147.245763,45.7796853 C147.245763,51.8597997 152.189266,56.509299 157.838983,56.509299 Z" fill="#FFFFFF" fill-rule="nonzero"></path>
    </g>
</svg>