<?xml version="1.0" encoding="UTF-8"?>
<svg width="250px" height="250px" viewBox="0 0 250 250" version="1.1" xmlns="http://www.w3.org/2000/svg" xmlns:xlink="http://www.w3.org/1999/xlink">
    <!-- Generator: Sketch 51.3 (57544) - http://www.bohemiancoding.com/sketch -->
    <title>icon-vaccinations</title>
    <desc>Created with Sketch.</desc>
    <defs></defs>
    <g id="icon-vaccinations" stroke="none" stroke-width="1" fill="none" fill-rule="evenodd">
        <path d="M248.155288,1.85867583 C245.685216,-0.619558612 241.6951,-0.619558612 239.225029,1.85867583 L204.770695,36.4268691 C193.243693,29.0557103 178.233257,30.7078666 168.542976,40.3666265 L161.576107,47.3565185 C151.759155,42.8448609 140.168819,44.9418285 132.505263,52.5671653 L82.2804709,102.703754 L53.5263026,131.425856 L39.719235,117.573161 C37.2491632,115.094927 33.2590474,115.094927 30.7889756,117.573161 C28.3189039,120.051396 28.3189039,124.054697 30.7889756,126.532932 L72.9068654,168.790006 L52.4496047,189.378416 C37.4391688,178.766489 16.7285673,182.324979 6.08825833,197.385019 C-4.48871549,212.445059 -0.941945823,233.224102 14.0684901,243.899573 C27.242206,253.240611 45.229395,251.715544 56.6930612,240.277538 C67.7767164,229.157256 69.6134364,211.809615 61.1265233,198.592364 L81.7737896,177.813322 L123.828344,220.006852 C126.298416,222.485086 130.288532,222.485086 132.758603,220.006852 C135.228675,217.528617 135.228675,213.525315 132.758603,211.047081 L118.951536,197.194386 L147.642369,168.345195 L197.61382,118.017972 C205.214041,110.329091 207.304102,98.7004527 202.807304,88.8510593 L209.710838,81.8611673 C219.337784,72.138863 220.984499,57.0788229 213.637619,45.5137288 L248.091953,10.9455355 C250.62536,8.34021208 250.62536,4.33691028 248.155288,1.85867583 Z M47.6994667,231.317768 C39.6558998,239.387916 26.5455191,239.387916 18.5019522,231.317768 C14.6385066,227.441555 12.4851108,222.167364 12.4851108,216.638995 C12.4851108,205.200989 21.7953811,195.923496 33.1957122,195.987041 C38.642537,195.987041 43.8993564,198.147553 47.6994667,202.023766 C47.7628019,202.08731 47.8261371,202.08731 47.8261371,202.150855 C47.8894722,202.277944 48.0161426,202.341488 48.0794778,202.468577 C55.869704,210.538725 55.6796985,223.438253 47.6994667,231.317768 Z M81.7104544,159.830236 L62.3932268,140.449171 L86.6505979,116.175183 L105.841155,135.429158 L81.7104544,159.830236 Z M109.957941,188.171071 L90.6407137,168.790006 L114.771414,144.388929 L134.088642,163.769993 L109.957941,188.171071 Z M188.620226,108.994657 L143.082237,154.873767 L95.6441924,107.215412 L141.372187,61.526936 C146.05899,56.8881894 153.40587,56.3798337 158.726024,60.319591 L158.852695,60.3831354 C159.296041,60.7008578 159.739387,61.0821247 160.182733,61.526936 L188.746896,90.1854933 C189.126907,90.5667601 189.506918,91.0115714 189.886929,91.4563827 C189.886929,91.5199272 189.950264,91.5199272 189.950264,91.5834717 C193.81371,96.8576629 193.307028,104.292366 188.620226,108.994657 Z M200.780579,72.7743077 L195.017078,78.5568547 L171.646399,55.1089442 L177.4099,49.2628527 C180.449988,46.1491735 184.63011,44.4334727 189.000237,44.3699283 L189.063572,44.3699283 C198.247172,44.4334727 205.594052,51.9317205 205.530717,61.0821247 C205.530717,65.5302378 203.820667,69.6606285 200.780579,72.7743077 Z" fill="#FFFFFF" fill-rule="nonzero"></path>
    </g>
</svg>