<?xml version="1.0" encoding="UTF-8"?>
<svg width="250px" height="250px" viewBox="0 0 250 250" version="1.1" xmlns="http://www.w3.org/2000/svg" xmlns:xlink="http://www.w3.org/1999/xlink">
    <!-- Generator: Sketch 51.3 (57544) - http://www.bohemiancoding.com/sketch -->
    <title>icon-grooming</title>
    <desc>Created with Sketch.</desc>
    <defs></defs>
    <g id="icon-grooming" stroke="none" stroke-width="1" fill="none" fill-rule="evenodd">
        <g id="Group" transform="translate(1.000000, 1.000000)" fill="#FFFFFF" fill-rule="nonzero" stroke="#FFFFFF" stroke-width="1.5">
            <path d="M61.7977528,0.0173595506 C27.7343399,0.0173595506 0,27.7517135 0,61.8151124 C0,95.8785393 27.7343399,123.612865 61.7977528,123.612865 C71.239868,123.612865 80.2061798,121.449834 88.2198034,117.643764 C91.7056545,129.197157 102.519126,137.657809 115.168539,137.657809 C130.615596,137.657809 143.258427,125.015112 143.258427,109.567921 C143.258427,95.8343567 133.244848,84.3908287 120.172051,82.0047191 C122.366784,75.6757697 123.595506,68.8794017 123.595506,61.8151124 C123.595506,27.7517135 95.8611657,0.0173595506 61.7977528,0.0173595506 Z M199.438202,0.0173595506 C173.131607,0.0173595506 151.685393,21.463427 151.685393,47.7701685 C151.685393,74.0769101 173.131607,95.5229775 199.438202,95.5229775 C225.744801,95.5229775 247.191011,74.0769101 247.191011,47.7701685 C247.191011,21.463427 225.744801,0.0173595506 199.438202,0.0173595506 Z M61.7977528,11.2533146 C89.7888062,11.2533146 112.359551,33.8240449 112.359551,61.8151124 C112.359551,89.8061798 89.7888062,112.37691 61.7977528,112.37691 C33.8066994,112.37691 11.2359551,89.8061798 11.2359551,61.8151124 C11.2359551,33.8240449 33.8066994,11.2533146 61.7977528,11.2533146 Z M199.438202,11.2533146 C219.672458,11.2533146 235.955056,27.5357865 235.955056,47.7701685 C235.955056,68.0045225 219.672458,84.2870225 199.438202,84.2870225 C179.203949,84.2870225 162.921348,68.0045225 162.921348,47.7701685 C162.921348,27.5357865 179.203949,11.2533146 199.438202,11.2533146 Z M61.2710674,22.4892697 C59.2636709,22.582964 57.4587944,23.7406129 56.5364759,25.5260394 C55.6141574,27.3114659 55.714558,29.4533459 56.799849,31.1446657 C57.88514,32.8359856 59.790394,33.819722 61.7977528,33.7252247 C77.3779045,33.7252247 89.8876404,46.235 89.8876404,61.8151124 C89.8590161,63.8411379 90.9234921,65.7256327 92.6734664,66.7469987 C94.4234408,67.7683648 96.5877952,67.7683648 98.3377695,66.7469987 C100.087744,65.7256327 101.15222,63.8411379 101.123596,61.8151124 C101.123596,40.1626404 83.4502809,22.4892697 61.7977528,22.4892697 C61.6222875,22.4810365 61.4465327,22.4810365 61.2710674,22.4892697 Z M201.720506,22.4892697 C199.713109,22.582964 197.908233,23.7406129 196.985914,25.5260394 C196.063596,27.3114659 196.163996,29.4533459 197.249287,31.1446657 C198.334578,32.8359856 200.239832,33.819722 202.247191,33.7252247 C204.877169,33.7252247 207.481593,35.057191 209.708567,38.0264888 C211.935542,40.9957865 213.483146,45.5122472 213.483146,50.5791573 C213.454529,52.6051781 214.519007,54.4896654 216.268978,55.5110269 C218.018949,56.5323884 220.183298,56.5323884 221.933269,55.5110269 C223.683241,54.4896654 224.747718,52.6051781 224.719101,50.5791573 C224.719101,43.2351124 222.535169,36.4312921 218.662219,31.2673596 C214.78927,26.103427 208.925385,22.4892697 202.247191,22.4892697 C202.071726,22.4810365 201.895971,22.4810365 201.720506,22.4892697 Z M115.25632,92.7139888 C124.589978,92.7604185 132.022472,100.222424 132.022472,109.567921 C132.022472,118.942921 124.54327,126.421854 115.168539,126.421854 C106.469994,126.421854 99.3765393,120.004935 98.4023876,111.586882 C105.240798,106.542492 110.972584,100.093837 115.25632,92.7139888 Z M185.393258,123.612865 C151.329846,123.612865 123.595506,151.347135 123.595506,185.410618 C123.595506,219.474101 151.329846,247.208371 185.393258,247.208371 C219.456671,247.208371 247.191011,219.474101 247.191011,185.410618 C247.191011,151.347135 219.456671,123.612865 185.393258,123.612865 Z M28.0898876,129.230843 C12.6428146,129.230843 0,141.873539 0,157.32073 C0,172.767921 12.6428146,185.410618 28.0898876,185.410618 C43.5369607,185.410618 56.1797753,172.767921 56.1797753,157.32073 C56.1797753,141.873539 43.5369607,129.230843 28.0898876,129.230843 Z M185.393258,134.84882 C213.384312,134.84882 235.955056,157.419607 235.955056,185.410618 C235.955056,213.401629 213.384312,235.972416 185.393258,235.972416 C157.402205,235.972416 134.831461,213.401629 134.831461,185.410618 C134.831461,157.419607 157.402205,134.84882 185.393258,134.84882 Z M28.0898876,140.466798 C37.4646011,140.466798 44.9438202,147.946011 44.9438202,157.32073 C44.9438202,166.695449 37.4646011,174.174663 28.0898876,174.174663 C18.7151742,174.174663 11.2359551,166.695449 11.2359551,157.32073 C11.2359551,147.946011 18.7151742,140.466798 28.0898876,140.466798 Z M184.866573,146.084775 C182.859177,146.17847 181.0543,147.336118 180.131981,149.121545 C179.209663,150.906972 179.310064,153.048852 180.395355,154.740171 C181.480646,156.431491 183.3859,157.415228 185.393258,157.32073 C200.97341,157.32073 213.483146,169.830562 213.483146,185.410618 C213.454522,187.436643 214.518998,189.321138 216.268972,190.342504 C218.018946,191.36387 220.183301,191.36387 221.933275,190.342504 C223.683249,189.321138 224.747725,187.436643 224.719101,185.410618 C224.719101,163.75809 207.045787,146.084775 185.393258,146.084775 C185.217793,146.076542 185.042038,146.076542 184.866573,146.084775 Z M81.4606742,179.79264 C66.0136011,179.79264 53.3707865,192.435337 53.3707865,207.882528 C53.3707865,223.329719 66.0136011,235.972416 81.4606742,235.972416 C96.9077472,235.972416 109.550562,223.329719 109.550562,207.882528 C109.550562,192.435337 96.9077472,179.79264 81.4606742,179.79264 Z M81.4606742,191.028596 C90.8353876,191.028596 98.3146067,198.507809 98.3146067,207.882528 C98.3146067,217.257247 90.8353876,224.736461 81.4606742,224.736461 C72.0859607,224.736461 64.6067416,217.257247 64.6067416,207.882528 C64.6067416,198.507809 72.0859607,191.028596 81.4606742,191.028596 Z" id="Shape"></path>
        </g>
    </g>
</svg>