<?xml version="1.0" encoding="UTF-8"?>
<svg width="160px" height="192px" viewBox="0 0 160 192" version="1.1" xmlns="http://www.w3.org/2000/svg" xmlns:xlink="http://www.w3.org/1999/xlink">
    <!-- Generator: Sketch 51.3 (57544) - http://www.bohemiancoding.com/sketch -->
    <title>Shape</title>
    <desc>Created with Sketch.</desc>
    <defs></defs>
    <g id="Page-1" stroke="none" stroke-width="1" fill="none" fill-rule="evenodd">
        <path d="M144.41,56.704 L144.41,40.2773333 C144.41,37.9093333 142.49,36.0106667 140.143333,36.0106667 C137.775333,36.0106667 135.876667,37.9093333 135.876667,40.2773333 L135.876667,53.056 C134.575333,52.7146667 133.231333,52.416 131.887333,52.2453333 L131.887333,51.136 C131.887333,35.8613333 121.69,24.6186667 103.812667,19.9466667 L103.812667,4.288 C103.812667,1.94133333 101.892667,0.0213333333 99.546,0.0213333333 C97.178,0.0213333333 95.2793333,1.94133333 95.2793333,4.288 L95.2793333,18.1973333 C85.2313333,16.64 74.906,16.6613333 64.9006667,18.24 L64.9006667,4.26666667 C64.9006667,1.92 62.9806667,0 60.634,0 C58.266,0 56.3673333,1.92 56.3673333,4.26666667 L56.3673333,20.0106667 C38.6606667,24.7466667 28.5913333,35.9466667 28.5913333,51.136 L28.5913333,52.224 C27.1193333,52.416 25.7113333,52.736 24.3033333,53.12 L24.3033333,40.2346667 C24.3033333,37.888 22.3833333,35.968 20.0366667,35.968 C17.6686667,35.968 15.77,37.888 15.77,40.2346667 L15.77,56.8746667 C6.746,62.5493333 0.73,72.5546667 0.73,83.9893333 L0.73,162.901333 C0.73,178.944 13.786,192 29.8073333,192 L130.671333,192 C146.692667,192 159.748667,178.944 159.748667,162.901333 L159.748667,83.9893333 C159.748667,72.448 153.604667,62.336 144.41,56.704 Z M18.394,92.16 C17.1993333,86.1866667 18.1806667,80.2986667 21.1033333,76.0106667 C23.1726667,72.96 26.0313333,71.04 29.338,70.4426667 C30.0206667,70.3146667 30.7246667,70.2506667 31.4286667,70.2506667 C39.002,70.2506667 45.8926667,77.2053333 47.7913333,86.784 C48.986,92.7573333 48.0046667,98.6453333 45.082,102.933333 C43.0126667,105.984 40.154,107.925333 36.8686667,108.522667 C36.1646667,108.650667 35.4606667,108.714667 34.7566667,108.714667 C27.1833333,108.714667 20.314,101.76 18.394,92.16 Z M57.9673333,36.096 C66.2233333,35.4133333 73.6473333,43.968 74.5433333,54.9973333 C75.4606667,66.0906667 69.5086667,75.6693333 61.274,76.352 C60.9753333,76.3733333 60.6553333,76.3946667 60.3353333,76.3946667 C52.442,76.3946667 45.5726667,68.0746667 44.698,57.4506667 C43.802,46.3573333 49.754,36.7786667 57.9673333,36.096 Z M80.4953333,85.2906667 L80.8366667,85.2906667 C80.986,85.2906667 81.1566667,85.312 81.306,85.3333333 C90.65,85.9093333 94.7033333,93.4613333 96.9433333,99.1146667 C98.7353333,103.658667 101.786,108.8 104.580667,109.994667 C113.263333,113.792 118.468667,122.922667 117.252667,132.245333 C116.143333,140.736 109.956667,146.816 101.146,148.138667 C100.122,148.288 99.0766667,148.373333 98.0313333,148.373333 C95.1726667,148.373333 92.2713333,147.776 89.626,146.666667 C88.4526667,146.176 87.3646667,145.6 86.3193333,145.024 C84.378,144 82.5433333,143.018667 80.5166667,142.805333 C78.4686667,143.018667 76.634,144 74.714,145.024 C73.6686667,145.6 72.5806667,146.176 71.4073333,146.666667 C67.7806667,148.181333 63.6846667,148.714667 59.8873333,148.138667 C51.0553333,146.816 44.89,140.736 43.7593333,132.245333 C42.5433333,122.922667 47.7486667,113.792 56.4313333,109.994667 C59.226,108.8 62.2766667,103.658667 64.09,99.1146667 C66.3086667,93.4613333 70.362,85.9093333 79.7273333,85.3333333 C79.8766667,85.312 80.026,85.2906667 80.1966667,85.2906667 C80.2393333,85.2906667 80.4526667,85.2906667 80.4953333,85.2906667 Z M85.9353333,54.9973333 C86.8313333,43.968 94.234,35.392 102.511333,36.096 C110.724667,36.7786667 116.676667,46.3573333 115.780667,57.4506667 C114.906,68.0746667 108.036667,76.3946667 100.143333,76.3946667 C99.8233333,76.3946667 99.5033333,76.3733333 99.2046667,76.352 C90.97,75.6693333 85.018,66.0906667 85.9353333,54.9973333 Z M123.61,108.522667 C120.324667,107.925333 117.466,105.984 115.396667,102.933333 C112.474,98.6453333 111.492667,92.7573333 112.687333,86.784 C114.586,77.2053333 121.476667,70.2506667 129.05,70.2506667 C129.754,70.2506667 130.458,70.3146667 131.140667,70.4426667 C134.447333,71.04 137.306,72.96 139.375333,76.0106667 C142.298,80.2986667 143.279333,86.1866667 142.084667,92.16 C141.124667,96.96 138.927333,101.098667 136.026,104.042667 C133.124667,106.965333 129.519333,108.714667 125.722,108.714667 C125.018,108.714667 124.314,108.650667 123.61,108.522667 Z" id="Shape" fill="#FFFFFF" fill-rule="nonzero"></path>
    </g>
</svg>